{
  "accessors": [
    {
      "bufferView": 0,
      "byteOffset": 0,
      "componentType": 5123,
      "normalized": false,
      "count": 12099,
      "type": "SCALAR"
    },
    {
      "bufferView": 1,
      "byteOffset": 0,
      "componentType": 5126,
      "normalized": false,
      "count": 5211,
      "type": "VEC3",
      "max": [
        24.846982955932617,
        23.789793014526367,
        26.525279998779297
      ],
      "min": [
        -10.84537124633789,
        -23.911170959472656,
        -6.746352195739746
      ]
    },
    {
      "bufferView": 2,
      "byteOffset": 0,
      "componentType": 5126,
      "normalized": false,
      "count": 5211,
      "type": "VEC2"
    },
    {
      "bufferView": 3,
      "byteOffset": 0,
      "componentType": 5123,
      "normalized": false,
      "count": 3165,
      "type": "SCALAR"
    },
    {
      "bufferView": 4,
      "byteOffset": 0,
      "componentType": 5126,
      "normalized": false,
      "count": 1578,
      "type": "VEC3",
      "max": [
        24.846982955932617,
        23.73866844177246,
        24.523481369018555
      ],
      "min": [
        -10.045621871948242,
        -23.812824249267578,
        -6.5971760749816895
      ]
    },
    {
      "bufferView": 5,
      "byteOffset": 0,
      "componentType": 5126,
      "normalized": false,
      "count": 1578,
      "type": "VEC2"
    }
  ],
  "asset": {
    "generator": "pygltflib@v1.16.4",
    "version": "2.0"
  },
  "bufferViews": [
    {
      "buffer": 0,
      "byteOffset": 0,
      "byteLength": 24200,
      "target": 34963
    },
    {
      "buffer": 0,
      "byteOffset": 24200,
      "byteLength": 62532,
      "target": 34962
    },
    {
      "buffer": 0,
      "byteOffset": 86732,
      "byteLength": 41688,
      "target": 34962
    },
    {
      "buffer": 0,
      "byteOffset": 128420,
      "byteLength": 6332,
      "target": 34963
    },
    {
      "buffer": 0,
      "byteOffset": 134752,
      "byteLength": 18936,
      "target": 34962
    },
    {
      "buffer": 0,
      "byteOffset": 153688,
      "byteLength": 12624,
      "target": 34962
    },
    {
      "buffer": 0,
      "byteOffset": 166312,
      "byteLength": 32552
    },
    {
      "buffer": 0,
      "byteOffset": 198864,
      "byteLength": 9856
    }
  ],
  "buffers": [
    {
      "uri": "e291f2784ca3_31.bin",
      "byteLength": 208720
    }
  ],
  "extensionsUsed": [
    "KHR_materials_unlit"
  ],
  "extensionsRequired": [
    "KHR_materials_unlit"
  ],
  "images": [
    {
      "mimeType": "image/jpeg",
      "bufferView": 6
    },
    {
      "mimeType": "image/jpeg",
      "bufferView": 7
    }
  ],
  "materials": [
    {
      "extensions": {
        "KHR_materials_unlit": {}
      },
      "pbrMetallicRoughness": {
        "baseColorFactor": [
          1.0,
          1.0,
          1.0,
          1.0
        ],
        "metallicFactor": 1.0,
        "roughnessFactor": 1.0,
        "baseColorTexture": {
          "index": 0,
          "texCoord": 0
        }
      },
      "emissiveFactor": [
        0.0,
        0.0,
        0.0
      ],
      "alphaMode": "OPAQUE",
      "alphaCutoff": 0.5,
      "doubleSided": false
    },
    {
      "extensions": {
        "KHR_materials_unlit": {}
      },
      "pbrMetallicRoughness": {
        "baseColorFactor": [
          1.0,
          1.0,
          1.0,
          1.0
        ],
        "metallicFactor": 1.0,
        "roughnessFactor": 1.0,
        "baseColorTexture": {
          "index": 1,
          "texCoord": 0
        }
      },
      "emissiveFactor": [
        0.0,
        0.0,
        0.0
      ],
      "alphaMode": "OPAQUE",
      "alphaCutoff": 0.5,
      "doubleSided": false
    }
  ],
  "meshes": [
    {
      "primitives": [
        {
          "attributes": {
            "POSITION": 1,
            "TEXCOORD_0": 2
          },
          "indices": 0,
          "mode": 4,
          "material": 0
        },
        {
          "attributes": {
            "POSITION": 4,
            "TEXCOORD_0": 5
          },
          "indices": 3,
          "mode": 4,
          "material": 1
        }
      ]
    }
  ],
  "nodes": [
    {
      "mesh": 0,
      "matrix": [
        0.008143752539076368,
        0.619140044956667,
        0.785238361279961,
        0.0,
        0.9999668390974684,
        -0.005042290520064185,
        -0.00639499896239113,
        0.0,
        0.0,
        0.785264401356236,
        -0.6191605768802083,
        0.0,
        2.2230074773153667,
        -12.531261277044567,
        43.572320544723866,
        1.0
      ]
    }
  ],
  "samplers": [
    {
      "wrapS": 33071,
      "wrapT": 33071
    }
  ],
  "scene": 0,
  "scenes": [
    {
      "nodes": [
        0
      ]
    }
  ],
  "textures": [
    {
      "sampler": 0,
      "source": 0
    },
    {
      "sampler": 0,
      "source": 1
    }
  ]
}