{
  "accessors": [
    {
      "bufferView": 0,
      "byteOffset": 0,
      "componentType": 5123,
      "normalized": false,
      "count": 10953,
      "type": "SCALAR"
    },
    {
      "bufferView": 1,
      "byteOffset": 0,
      "componentType": 5126,
      "normalized": false,
      "count": 4971,
      "type": "VEC3",
      "max": [
        19.787418365478516,
        23.839942932128906,
        15.763737678527832
      ],
      "min": [
        -16.370563507080078,
        -23.839149475097656,
        -12.982370376586914
      ]
    },
    {
      "bufferView": 2,
      "byteOffset": 0,
      "componentType": 5126,
      "normalized": false,
      "count": 4971,
      "type": "VEC2"
    },
    {
      "bufferView": 3,
      "byteOffset": 0,
      "componentType": 5123,
      "normalized": false,
      "count": 1134,
      "type": "SCALAR"
    },
    {
      "bufferView": 4,
      "byteOffset": 0,
      "componentType": 5126,
      "normalized": false,
      "count": 518,
      "type": "VEC3",
      "max": [
        19.351728439331055,
        23.72208023071289,
        11.971704483032227
      ],
      "min": [
        -14.069535255432129,
        -23.84378433227539,
        -13.069991111755371
      ]
    },
    {
      "bufferView": 5,
      "byteOffset": 0,
      "componentType": 5126,
      "normalized": false,
      "count": 518,
      "type": "VEC2"
    }
  ],
  "asset": {
    "generator": "pygltflib@v1.16.4",
    "version": "2.0"
  },
  "bufferViews": [
    {
      "buffer": 0,
      "byteOffset": 0,
      "byteLength": 21908,
      "target": 34963
    },
    {
      "buffer": 0,
      "byteOffset": 21908,
      "byteLength": 59652,
      "target": 34962
    },
    {
      "buffer": 0,
      "byteOffset": 81560,
      "byteLength": 39768,
      "target": 34962
    },
    {
      "buffer": 0,
      "byteOffset": 121328,
      "byteLength": 2268,
      "target": 34963
    },
    {
      "buffer": 0,
      "byteOffset": 123596,
      "byteLength": 6216,
      "target": 34962
    },
    {
      "buffer": 0,
      "byteOffset": 129812,
      "byteLength": 4144,
      "target": 34962
    },
    {
      "buffer": 0,
      "byteOffset": 133956,
      "byteLength": 33580
    },
    {
      "buffer": 0,
      "byteOffset": 167536,
      "byteLength": 3900
    }
  ],
  "buffers": [
    {
      "uri": "e291f2784ca3_54.bin",
      "byteLength": 171436
    }
  ],
  "extensionsUsed": [
    "KHR_materials_unlit"
  ],
  "extensionsRequired": [
    "KHR_materials_unlit"
  ],
  "images": [
    {
      "mimeType": "image/jpeg",
      "bufferView": 6
    },
    {
      "mimeType": "image/jpeg",
      "bufferView": 7
    }
  ],
  "materials": [
    {
      "extensions": {
        "KHR_materials_unlit": {}
      },
      "pbrMetallicRoughness": {
        "baseColorFactor": [
          1.0,
          1.0,
          1.0,
          1.0
        ],
        "metallicFactor": 1.0,
        "roughnessFactor": 1.0,
        "baseColorTexture": {
          "index": 0,
          "texCoord": 0
        }
      },
      "emissiveFactor": [
        0.0,
        0.0,
        0.0
      ],
      "alphaMode": "OPAQUE",
      "alphaCutoff": 0.5,
      "doubleSided": false
    },
    {
      "extensions": {
        "KHR_materials_unlit": {}
      },
      "pbrMetallicRoughness": {
        "baseColorFactor": [
          1.0,
          1.0,
          1.0,
          1.0
        ],
        "metallicFactor": 1.0,
        "roughnessFactor": 1.0,
        "baseColorTexture": {
          "index": 1,
          "texCoord": 0
        }
      },
      "emissiveFactor": [
        0.0,
        0.0,
        0.0
      ],
      "alphaMode": "OPAQUE",
      "alphaCutoff": 0.5,
      "doubleSided": false
    }
  ],
  "meshes": [
    {
      "primitives": [
        {
          "attributes": {
            "POSITION": 1,
            "TEXCOORD_0": 2
          },
          "indices": 0,
          "mode": 4,
          "material": 0
        },
        {
          "attributes": {
            "POSITION": 4,
            "TEXCOORD_0": 5
          },
          "indices": 3,
          "mode": 4,
          "material": 1
        }
      ]
    }
  ],
  "nodes": [
    {
      "mesh": 0,
      "matrix": [
        0.008143752539076368,
        0.619140044956667,
        0.785238361279961,
        0.0,
        0.9999668390974684,
        -0.005042290520064185,
        -0.00639499896239113,
        0.0,
        0.0,
        0.785264401356236,
        -0.6191605768802083,
        0.0,
        -92.62679189637738,
        -12.528969062333871,
        -109.2279320929002,
        1.0
      ]
    }
  ],
  "samplers": [
    {
      "wrapS": 33071,
      "wrapT": 33071
    }
  ],
  "scene": 0,
  "scenes": [
    {
      "nodes": [
        0
      ]
    }
  ],
  "textures": [
    {
      "sampler": 0,
      "source": 0
    },
    {
      "sampler": 0,
      "source": 1
    }
  ]
}