{
  "accessors": [
    {
      "bufferView": 0,
      "byteOffset": 0,
      "componentType": 5123,
      "normalized": false,
      "count": 14523,
      "type": "SCALAR"
    },
    {
      "bufferView": 1,
      "byteOffset": 0,
      "componentType": 5126,
      "normalized": false,
      "count": 6596,
      "type": "VEC3",
      "max": [
        18.237253189086914,
        23.839994430541992,
        17.364309310913086
      ],
      "min": [
        -17.05050277709961,
        -23.860410690307617,
        -13.459432601928711
      ]
    },
    {
      "bufferView": 2,
      "byteOffset": 0,
      "componentType": 5126,
      "normalized": false,
      "count": 6596,
      "type": "VEC2"
    },
    {
      "bufferView": 3,
      "byteOffset": 0,
      "componentType": 5123,
      "normalized": false,
      "count": 4947,
      "type": "SCALAR"
    },
    {
      "bufferView": 4,
      "byteOffset": 0,
      "componentType": 5126,
      "normalized": false,
      "count": 2385,
      "type": "VEC3",
      "max": [
        17.77139663696289,
        23.807125091552734,
        17.364309310913086
      ],
      "min": [
        -17.05050277709961,
        -23.855335235595703,
        -13.309906959533691
      ]
    },
    {
      "bufferView": 5,
      "byteOffset": 0,
      "componentType": 5126,
      "normalized": false,
      "count": 2385,
      "type": "VEC2"
    }
  ],
  "asset": {
    "generator": "pygltflib@v1.16.4",
    "version": "2.0"
  },
  "bufferViews": [
    {
      "buffer": 0,
      "byteOffset": 0,
      "byteLength": 29048,
      "target": 34963
    },
    {
      "buffer": 0,
      "byteOffset": 29048,
      "byteLength": 79152,
      "target": 34962
    },
    {
      "buffer": 0,
      "byteOffset": 108200,
      "byteLength": 52768,
      "target": 34962
    },
    {
      "buffer": 0,
      "byteOffset": 160968,
      "byteLength": 9896,
      "target": 34963
    },
    {
      "buffer": 0,
      "byteOffset": 170864,
      "byteLength": 28620,
      "target": 34962
    },
    {
      "buffer": 0,
      "byteOffset": 199484,
      "byteLength": 19080,
      "target": 34962
    },
    {
      "buffer": 0,
      "byteOffset": 218564,
      "byteLength": 35856
    },
    {
      "buffer": 0,
      "byteOffset": 254420,
      "byteLength": 12240
    }
  ],
  "buffers": [
    {
      "uri": "e291f2784ca3_44.bin",
      "byteLength": 266660
    }
  ],
  "extensionsUsed": [
    "KHR_materials_unlit"
  ],
  "extensionsRequired": [
    "KHR_materials_unlit"
  ],
  "images": [
    {
      "mimeType": "image/jpeg",
      "bufferView": 6
    },
    {
      "mimeType": "image/jpeg",
      "bufferView": 7
    }
  ],
  "materials": [
    {
      "extensions": {
        "KHR_materials_unlit": {}
      },
      "pbrMetallicRoughness": {
        "baseColorFactor": [
          1.0,
          1.0,
          1.0,
          1.0
        ],
        "metallicFactor": 1.0,
        "roughnessFactor": 1.0,
        "baseColorTexture": {
          "index": 0,
          "texCoord": 0
        }
      },
      "emissiveFactor": [
        0.0,
        0.0,
        0.0
      ],
      "alphaMode": "OPAQUE",
      "alphaCutoff": 0.5,
      "doubleSided": false
    },
    {
      "extensions": {
        "KHR_materials_unlit": {}
      },
      "pbrMetallicRoughness": {
        "baseColorFactor": [
          1.0,
          1.0,
          1.0,
          1.0
        ],
        "metallicFactor": 1.0,
        "roughnessFactor": 1.0,
        "baseColorTexture": {
          "index": 1,
          "texCoord": 0
        }
      },
      "emissiveFactor": [
        0.0,
        0.0,
        0.0
      ],
      "alphaMode": "OPAQUE",
      "alphaCutoff": 0.5,
      "doubleSided": false
    }
  ],
  "meshes": [
    {
      "primitives": [
        {
          "attributes": {
            "POSITION": 1,
            "TEXCOORD_0": 2
          },
          "indices": 0,
          "mode": 4,
          "material": 0
        },
        {
          "attributes": {
            "POSITION": 4,
            "TEXCOORD_0": 5
          },
          "indices": 3,
          "mode": 4,
          "material": 1
        }
      ]
    }
  ],
  "nodes": [
    {
      "mesh": 0,
      "matrix": [
        0.008143752539076368,
        0.619140044956667,
        0.785238361279961,
        0.0,
        0.9999668390974684,
        -0.005042290520064185,
        -0.00639499896239113,
        0.0,
        0.0,
        0.785264401356236,
        -0.6191605768802083,
        0.0,
        -140.05484274260442,
        -12.529291803224407,
        5.370527803823617,
        1.0
      ]
    }
  ],
  "samplers": [
    {
      "wrapS": 33071,
      "wrapT": 33071
    }
  ],
  "scene": 0,
  "scenes": [
    {
      "nodes": [
        0
      ]
    }
  ],
  "textures": [
    {
      "sampler": 0,
      "source": 0
    },
    {
      "sampler": 0,
      "source": 1
    }
  ]
}