{
  "accessors": [
    {
      "bufferView": 0,
      "byteOffset": 0,
      "componentType": 5123,
      "normalized": false,
      "count": 2178,
      "type": "SCALAR"
    },
    {
      "bufferView": 1,
      "byteOffset": 0,
      "componentType": 5126,
      "normalized": false,
      "count": 852,
      "type": "VEC3",
      "max": [
        -0.15173137187957764,
        23.916959762573242,
        1.2981051206588745
      ],
      "min": [
        -26.240266799926758,
        -6.282164096832275,
        -22.199979782104492
      ]
    },
    {
      "bufferView": 2,
      "byteOffset": 0,
      "componentType": 5126,
      "normalized": false,
      "count": 852,
      "type": "VEC2"
    }
  ],
  "asset": {
    "generator": "pygltflib@v1.16.4",
    "version": "2.0"
  },
  "bufferViews": [
    {
      "buffer": 0,
      "byteOffset": 0,
      "byteLength": 4356,
      "target": 34963
    },
    {
      "buffer": 0,
      "byteOffset": 4356,
      "byteLength": 10224,
      "target": 34962
    },
    {
      "buffer": 0,
      "byteOffset": 14580,
      "byteLength": 6816,
      "target": 34962
    },
    {
      "buffer": 0,
      "byteOffset": 21396,
      "byteLength": 4468
    }
  ],
  "buffers": [
    {
      "uri": "e291f2784ca3_7.bin",
      "byteLength": 25864
    }
  ],
  "extensionsUsed": [
    "KHR_materials_unlit"
  ],
  "extensionsRequired": [
    "KHR_materials_unlit"
  ],
  "images": [
    {
      "mimeType": "image/jpeg",
      "bufferView": 3
    }
  ],
  "materials": [
    {
      "extensions": {
        "KHR_materials_unlit": {}
      },
      "pbrMetallicRoughness": {
        "baseColorFactor": [
          1.0,
          1.0,
          1.0,
          1.0
        ],
        "metallicFactor": 1.0,
        "roughnessFactor": 1.0,
        "baseColorTexture": {
          "index": 0,
          "texCoord": 0
        }
      },
      "emissiveFactor": [
        0.0,
        0.0,
        0.0
      ],
      "alphaMode": "OPAQUE",
      "alphaCutoff": 0.5,
      "doubleSided": false
    }
  ],
  "meshes": [
    {
      "primitives": [
        {
          "attributes": {
            "POSITION": 1,
            "TEXCOORD_0": 2
          },
          "indices": 0,
          "mode": 4,
          "material": 0
        }
      ]
    }
  ],
  "nodes": [
    {
      "mesh": 0,
      "matrix": [
        0.008143752539076368,
        0.619140044956667,
        0.785238361279961,
        0.0,
        0.9999668390974684,
        -0.005042290520064185,
        -0.00639499896239113,
        0.0,
        0.0,
        0.785264401356236,
        -0.6191605768802083,
        0.0,
        -45.20218372449365,
        23.925750661104757,
        -109.22790814704817,
        1.0
      ]
    }
  ],
  "samplers": [
    {
      "wrapS": 33071,
      "wrapT": 33071
    }
  ],
  "scene": 0,
  "scenes": [
    {
      "nodes": [
        0
      ]
    }
  ],
  "textures": [
    {
      "sampler": 0,
      "source": 0
    }
  ]
}