{
  "accessors": [
    {
      "bufferView": 0,
      "byteOffset": 0,
      "componentType": 5123,
      "normalized": false,
      "count": 10407,
      "type": "SCALAR"
    },
    {
      "bufferView": 1,
      "byteOffset": 0,
      "componentType": 5126,
      "normalized": false,
      "count": 4593,
      "type": "VEC3",
      "max": [
        26.842044830322266,
        23.763484954833984,
        26.41460609436035
      ],
      "min": [
        -8.712152481079102,
        -23.901029586791992,
        -3.306295871734619
      ]
    },
    {
      "bufferView": 2,
      "byteOffset": 0,
      "componentType": 5126,
      "normalized": false,
      "count": 4593,
      "type": "VEC2"
    }
  ],
  "asset": {
    "generator": "pygltflib@v1.16.4",
    "version": "2.0"
  },
  "bufferViews": [
    {
      "buffer": 0,
      "byteOffset": 0,
      "byteLength": 20816,
      "target": 34963
    },
    {
      "buffer": 0,
      "byteOffset": 20816,
      "byteLength": 55116,
      "target": 34962
    },
    {
      "buffer": 0,
      "byteOffset": 75932,
      "byteLength": 36744,
      "target": 34962
    },
    {
      "buffer": 0,
      "byteOffset": 112676,
      "byteLength": 32000
    }
  ],
  "buffers": [
    {
      "uri": "fce41ff62f8a_4.bin",
      "byteLength": 144676
    }
  ],
  "extensionsUsed": [
    "KHR_materials_unlit"
  ],
  "extensionsRequired": [
    "KHR_materials_unlit"
  ],
  "images": [
    {
      "mimeType": "image/jpeg",
      "bufferView": 3
    }
  ],
  "materials": [
    {
      "extensions": {
        "KHR_materials_unlit": {}
      },
      "pbrMetallicRoughness": {
        "baseColorFactor": [
          1.0,
          1.0,
          1.0,
          1.0
        ],
        "metallicFactor": 1.0,
        "roughnessFactor": 1.0,
        "baseColorTexture": {
          "index": 0,
          "texCoord": 0
        }
      },
      "emissiveFactor": [
        0.0,
        0.0,
        0.0
      ],
      "alphaMode": "OPAQUE",
      "alphaCutoff": 0.5,
      "doubleSided": false
    }
  ],
  "meshes": [
    {
      "primitives": [
        {
          "attributes": {
            "POSITION": 1,
            "TEXCOORD_0": 2
          },
          "indices": 0,
          "mode": 4,
          "material": 0
        }
      ]
    }
  ],
  "nodes": [
    {
      "mesh": 0,
      "matrix": [
        0.008137198908638782,
        0.6191383871133536,
        0.7852397363841164,
        0.0,
        0.9999668924489057,
        -0.0050382190110084876,
        -0.006389863478656241,
        0.0,
        0.0,
        0.7852657346095475,
        -0.6191588859478055,
        0.0,
        23.71279247660906,
        -18.2278804783515,
        -19.09992466465163,
        1.0
      ]
    }
  ],
  "samplers": [
    {
      "wrapS": 33071,
      "wrapT": 33071
    }
  ],
  "scene": 0,
  "scenes": [
    {
      "nodes": [
        0
      ]
    }
  ],
  "textures": [
    {
      "sampler": 0,
      "source": 0
    }
  ]
}