{
  "accessors": [
    {
      "bufferView": 0,
      "byteOffset": 0,
      "componentType": 5123,
      "normalized": false,
      "count": 11004,
      "type": "SCALAR"
    },
    {
      "bufferView": 1,
      "byteOffset": 0,
      "componentType": 5126,
      "normalized": false,
      "count": 4650,
      "type": "VEC3",
      "max": [
        26.867841720581055,
        23.789608001708984,
        26.15691375732422
      ],
      "min": [
        -9.192380905151367,
        -23.882192611694336,
        -6.309211730957031
      ]
    },
    {
      "bufferView": 2,
      "byteOffset": 0,
      "componentType": 5126,
      "normalized": false,
      "count": 4650,
      "type": "VEC2"
    },
    {
      "bufferView": 3,
      "byteOffset": 0,
      "componentType": 5123,
      "normalized": false,
      "count": 1827,
      "type": "SCALAR"
    },
    {
      "bufferView": 4,
      "byteOffset": 0,
      "componentType": 5126,
      "normalized": false,
      "count": 881,
      "type": "VEC3",
      "max": [
        25.02767562866211,
        23.696149826049805,
        26.038562774658203
      ],
      "min": [
        -8.129176139831543,
        -23.873273849487305,
        -5.259818077087402
      ]
    },
    {
      "bufferView": 5,
      "byteOffset": 0,
      "componentType": 5126,
      "normalized": false,
      "count": 881,
      "type": "VEC2"
    }
  ],
  "asset": {
    "generator": "pygltflib@v1.16.4",
    "version": "2.0"
  },
  "bufferViews": [
    {
      "buffer": 0,
      "byteOffset": 0,
      "byteLength": 22008,
      "target": 34963
    },
    {
      "buffer": 0,
      "byteOffset": 22008,
      "byteLength": 55800,
      "target": 34962
    },
    {
      "buffer": 0,
      "byteOffset": 77808,
      "byteLength": 37200,
      "target": 34962
    },
    {
      "buffer": 0,
      "byteOffset": 115008,
      "byteLength": 3656,
      "target": 34963
    },
    {
      "buffer": 0,
      "byteOffset": 118664,
      "byteLength": 10572,
      "target": 34962
    },
    {
      "buffer": 0,
      "byteOffset": 129236,
      "byteLength": 7048,
      "target": 34962
    },
    {
      "buffer": 0,
      "byteOffset": 136284,
      "byteLength": 32592
    },
    {
      "buffer": 0,
      "byteOffset": 168876,
      "byteLength": 6704
    }
  ],
  "buffers": [
    {
      "uri": "fce41ff62f8a_5.bin",
      "byteLength": 175580
    }
  ],
  "extensionsUsed": [
    "KHR_materials_unlit"
  ],
  "extensionsRequired": [
    "KHR_materials_unlit"
  ],
  "images": [
    {
      "mimeType": "image/jpeg",
      "bufferView": 6
    },
    {
      "mimeType": "image/jpeg",
      "bufferView": 7
    }
  ],
  "materials": [
    {
      "extensions": {
        "KHR_materials_unlit": {}
      },
      "pbrMetallicRoughness": {
        "baseColorFactor": [
          1.0,
          1.0,
          1.0,
          1.0
        ],
        "metallicFactor": 1.0,
        "roughnessFactor": 1.0,
        "baseColorTexture": {
          "index": 0,
          "texCoord": 0
        }
      },
      "emissiveFactor": [
        0.0,
        0.0,
        0.0
      ],
      "alphaMode": "OPAQUE",
      "alphaCutoff": 0.5,
      "doubleSided": false
    },
    {
      "extensions": {
        "KHR_materials_unlit": {}
      },
      "pbrMetallicRoughness": {
        "baseColorFactor": [
          1.0,
          1.0,
          1.0,
          1.0
        ],
        "metallicFactor": 1.0,
        "roughnessFactor": 1.0,
        "baseColorTexture": {
          "index": 1,
          "texCoord": 0
        }
      },
      "emissiveFactor": [
        0.0,
        0.0,
        0.0
      ],
      "alphaMode": "OPAQUE",
      "alphaCutoff": 0.5,
      "doubleSided": false
    }
  ],
  "meshes": [
    {
      "primitives": [
        {
          "attributes": {
            "POSITION": 1,
            "TEXCOORD_0": 2
          },
          "indices": 0,
          "mode": 4,
          "material": 0
        },
        {
          "attributes": {
            "POSITION": 4,
            "TEXCOORD_0": 5
          },
          "indices": 3,
          "mode": 4,
          "material": 1
        }
      ]
    }
  ],
  "nodes": [
    {
      "mesh": 0,
      "matrix": [
        0.008137198908638782,
        0.6191383871133536,
        0.7852397363841164,
        0.0,
        0.9999668924489057,
        -0.0050382190110084876,
        -0.006389863478656241,
        0.0,
        0.0,
        0.7852657346095475,
        -0.6191588859478055,
        0.0,
        -23.712972220550668,
        -18.227331162479018,
        19.09992466552062,
        1.0
      ]
    }
  ],
  "samplers": [
    {
      "wrapS": 33071,
      "wrapT": 33071
    }
  ],
  "scene": 0,
  "scenes": [
    {
      "nodes": [
        0
      ]
    }
  ],
  "textures": [
    {
      "sampler": 0,
      "source": 0
    },
    {
      "sampler": 0,
      "source": 1
    }
  ]
}