{
  "accessors": [
    {
      "bufferView": 0,
      "byteOffset": 0,
      "componentType": 5123,
      "normalized": false,
      "count": 2322,
      "type": "SCALAR"
    },
    {
      "bufferView": 1,
      "byteOffset": 0,
      "componentType": 5126,
      "normalized": false,
      "count": 902,
      "type": "VEC3",
      "max": [
        5.79323673248291,
        23.908933639526367,
        -0.37536031007766724
      ],
      "min": [
        -26.6702938079834,
        -4.7600250244140625,
        -26.571739196777344
      ]
    },
    {
      "bufferView": 2,
      "byteOffset": 0,
      "componentType": 5126,
      "normalized": false,
      "count": 902,
      "type": "VEC2"
    }
  ],
  "asset": {
    "generator": "pygltflib@v1.16.4",
    "version": "2.0"
  },
  "bufferViews": [
    {
      "buffer": 0,
      "byteOffset": 0,
      "byteLength": 4644,
      "target": 34963
    },
    {
      "buffer": 0,
      "byteOffset": 4644,
      "byteLength": 10824,
      "target": 34962
    },
    {
      "buffer": 0,
      "byteOffset": 15468,
      "byteLength": 7216,
      "target": 34962
    },
    {
      "buffer": 0,
      "byteOffset": 22684,
      "byteLength": 5076
    }
  ],
  "buffers": [
    {
      "uri": "fce41ff62f8a_6.bin",
      "byteLength": 27760
    }
  ],
  "extensionsUsed": [
    "KHR_materials_unlit"
  ],
  "extensionsRequired": [
    "KHR_materials_unlit"
  ],
  "images": [
    {
      "mimeType": "image/jpeg",
      "bufferView": 3
    }
  ],
  "materials": [
    {
      "extensions": {
        "KHR_materials_unlit": {}
      },
      "pbrMetallicRoughness": {
        "baseColorFactor": [
          1.0,
          1.0,
          1.0,
          1.0
        ],
        "metallicFactor": 1.0,
        "roughnessFactor": 1.0,
        "baseColorTexture": {
          "index": 0,
          "texCoord": 0
        }
      },
      "emissiveFactor": [
        0.0,
        0.0,
        0.0
      ],
      "alphaMode": "OPAQUE",
      "alphaCutoff": 0.5,
      "doubleSided": false
    }
  ],
  "meshes": [
    {
      "primitives": [
        {
          "attributes": {
            "POSITION": 1,
            "TEXCOORD_0": 2
          },
          "indices": 0,
          "mode": 4,
          "material": 0
        }
      ]
    }
  ],
  "nodes": [
    {
      "mesh": 0,
      "matrix": [
        0.008137198908638782,
        0.6191383871133536,
        0.7852397363841164,
        0.0,
        0.9999668924489057,
        -0.0050382190110084876,
        -0.006389863478656241,
        0.0,
        0.0,
        0.7852657346095475,
        -0.6191588859478055,
        0.0,
        23.712927727471126,
        18.227331160391785,
        -19.100033886227468,
        1.0
      ]
    }
  ],
  "samplers": [
    {
      "wrapS": 33071,
      "wrapT": 33071
    }
  ],
  "scene": 0,
  "scenes": [
    {
      "nodes": [
        0
      ]
    }
  ],
  "textures": [
    {
      "sampler": 0,
      "source": 0
    }
  ]
}