{
  "accessors": [
    {
      "bufferView": 0,
      "byteOffset": 0,
      "componentType": 5121,
      "normalized": false,
      "count": 594,
      "type": "SCALAR"
    },
    {
      "bufferView": 1,
      "byteOffset": 0,
      "componentType": 5126,
      "normalized": false,
      "count": 228,
      "type": "VEC3",
      "max": [
        4.135120391845703,
        23.80230712890625,
        -1.5901997089385986
      ],
      "min": [
        -26.708110809326172,
        -23.5223331451416,
        -26.583967208862305
      ]
    },
    {
      "bufferView": 2,
      "byteOffset": 0,
      "componentType": 5126,
      "normalized": false,
      "count": 228,
      "type": "VEC2"
    }
  ],
  "asset": {
    "generator": "pygltflib@v1.16.4",
    "version": "2.0"
  },
  "bufferViews": [
    {
      "buffer": 0,
      "byteOffset": 0,
      "byteLength": 596,
      "target": 34963
    },
    {
      "buffer": 0,
      "byteOffset": 596,
      "byteLength": 2736,
      "target": 34962
    },
    {
      "buffer": 0,
      "byteOffset": 3332,
      "byteLength": 1824,
      "target": 34962
    },
    {
      "buffer": 0,
      "byteOffset": 5156,
      "byteLength": 2208
    }
  ],
  "buffers": [
    {
      "uri": "fce41ff62f8a_3.bin",
      "byteLength": 7364
    }
  ],
  "extensionsUsed": [
    "KHR_materials_unlit"
  ],
  "extensionsRequired": [
    "KHR_materials_unlit"
  ],
  "images": [
    {
      "mimeType": "image/jpeg",
      "bufferView": 3
    }
  ],
  "materials": [
    {
      "extensions": {
        "KHR_materials_unlit": {}
      },
      "pbrMetallicRoughness": {
        "baseColorFactor": [
          1.0,
          1.0,
          1.0,
          1.0
        ],
        "metallicFactor": 1.0,
        "roughnessFactor": 1.0,
        "baseColorTexture": {
          "index": 0,
          "texCoord": 0
        }
      },
      "emissiveFactor": [
        0.0,
        0.0,
        0.0
      ],
      "alphaMode": "OPAQUE",
      "alphaCutoff": 0.5,
      "doubleSided": false
    }
  ],
  "meshes": [
    {
      "primitives": [
        {
          "attributes": {
            "POSITION": 1,
            "TEXCOORD_0": 2
          },
          "indices": 0,
          "mode": 4,
          "material": 0
        }
      ]
    }
  ],
  "nodes": [
    {
      "mesh": 0,
      "matrix": [
        0.008137198908638782,
        0.6191383871133536,
        0.7852397363841164,
        0.0,
        0.9999668924489057,
        -0.0050382190110084876,
        -0.006389863478656241,
        0.0,
        0.0,
        0.7852657346095475,
        -0.6191588859478055,
        0.0,
        -23.71310747243787,
        18.227880476461873,
        19.10003388783558,
        1.0
      ]
    }
  ],
  "samplers": [
    {
      "wrapS": 33071,
      "wrapT": 33071
    }
  ],
  "scene": 0,
  "scenes": [
    {
      "nodes": [
        0
      ]
    }
  ],
  "textures": [
    {
      "sampler": 0,
      "source": 0
    }
  ]
}